<svg width="40" height="40" viewBox="0 0 40 40" fill="none" xmlns="http://www.w3.org/2000/svg">
    <circle cx="20" cy="20" r="20" fill="black" fill-opacity="0.05"/>
    <g clip-path="url(#clip0_1_76)">
        <path fill-rule="evenodd" clip-rule="evenodd" d="M20 10C14.4772 10 10 14.4772 10 20C10 25.5228 14.4772 30 20 30C25.5228 30 30 25.5228 30 20C30 14.4772 25.5228 10 20 10ZM12 20C12 15.5817 15.5817 12 20 12C24.4183 12 28 15.5817 28 20C28 24.4183 24.4183 28 20 28C15.5817 28 12 24.4183 12 20ZM21 14C21 13.4477 20.5523 13 20 13C19.4477 13 19 13.4477 19 14V14.7492C18.5371 14.8376 18.0823 15.0052 17.6824 15.2848C16.9343 15.8079 16.5 16.6391 16.5 17.6923C16.5 18.2144 16.6329 18.6874 16.8966 19.0953C17.1543 19.4938 17.5019 19.7762 17.8529 19.9824C18.494 20.3591 19.3012 20.5619 19.9371 20.7217L20.0059 20.739C20.7352 20.9226 21.2674 21.0651 21.6341 21.2805C21.7987 21.3772 21.8808 21.4625 21.9239 21.5292C21.961 21.5865 22 21.6759 22 21.8461C22 22.2718 21.8275 22.531 21.5332 22.7213C21.195 22.9398 20.6641 23.0747 20.0332 23.0537C19.0573 23.0214 18.1794 22.635 17.7761 22.1386C17.4278 21.71 16.798 21.6449 16.3694 21.9932C15.9407 22.3415 15.8756 22.9713 16.2239 23.3999C16.9007 24.2327 17.9469 24.7318 19 24.9408V26C19 26.5523 19.4477 27 20 27C20.5523 27 21 26.5523 21 26V24.992C21.5728 24.9026 22.1332 24.7149 22.6189 24.4009C23.4406 23.8697 24 22.9999 24 21.8461C24 21.324 23.8671 20.851 23.6034 20.4432C23.3457 20.0447 22.9982 19.7622 22.6471 19.556C22.006 19.1794 21.1989 18.9766 20.5629 18.8168L20.5629 18.8168L20.4941 18.7995C19.7648 18.6159 19.2326 18.4734 18.8659 18.2579C18.7013 18.1613 18.6192 18.0759 18.5761 18.0093C18.539 17.952 18.5 17.8625 18.5 17.6923C18.5 17.2408 18.6562 17.0443 18.8284 16.924C19.0519 16.7677 19.4391 16.656 19.9751 16.6693L19.9752 16.6693C20.8922 16.6921 21.8494 17.068 22.3217 17.5041C22.7275 17.8787 23.3602 17.8534 23.7348 17.4475C24.1094 17.0417 24.0841 16.4091 23.6783 16.0345C23.001 15.4092 22.0062 14.969 21 14.7767V14Z" fill="black"/>
    </g>
    <defs>
        <clipPath id="clip0_1_76">
            <rect width="20" height="20" fill="white" transform="translate(10 10)"/>
        </clipPath>
    </defs>
</svg>
