<svg width="1150" height="400" viewBox="0 0 1150 400" fill="none" xmlns="http://www.w3.org/2000/svg">
    <g clip-path="url(#clip0_1_4)">
        <rect width="1150" height="400" rx="20" fill="black"/>
        <path d="M239.928 -70C332.022 67.2359 233.443 95.9945 106.041 83.829C29.4445 76.5129 22.0754 169.915 87.0712 203.755C166.216 251.953 253.108 199.897 333.432 185.791C389.585 184.294 415.019 241.495 373.394 279.805C339.917 308.732 309.009 351.765 332.106 396.716C363.941 462.498 451.233 446.474 489.679 394.207C525.977 360.177 547.369 253.64 601.753 267.197C628.177 273.796 625.566 301.269 633.777 321.741C652.642 372.68 726.713 382.358 758 337.955" stroke="#FFE600" stroke-width="40" stroke-miterlimit="10" stroke-linecap="round"/>
        <path d="M295.832 130.4H309.56C313.592 130.4 316.72 131.176 318.944 132.728C321.184 134.264 322.304 136.592 322.304 139.712C322.304 141.36 321.848 142.832 320.936 144.128C320.04 145.408 318.872 146.312 317.432 146.84C319.032 147.384 320.36 148.336 321.416 149.696C322.488 151.056 323.024 152.616 323.024 154.376C323.024 157.56 321.936 159.96 319.76 161.576C317.584 163.192 314.456 164 310.376 164H295.832V130.4ZM310.04 150.032H302.528V158.096L310.04 158.12C312.04 158.12 313.544 157.824 314.552 157.232C315.56 156.624 316.064 155.56 316.064 154.04C316.064 152.552 315.552 151.512 314.528 150.92C313.52 150.328 312.024 150.032 310.04 150.032ZM309.368 136.304H302.528V144.152H309.392C311.28 144.152 312.736 143.872 313.76 143.312C314.8 142.736 315.32 141.696 315.32 140.192C315.32 139.568 315.216 139.032 315.008 138.584C314.8 138.12 314.52 137.744 314.168 137.456C313.832 137.168 313.4 136.936 312.872 136.76C312.36 136.584 311.824 136.464 311.264 136.4C310.704 136.336 310.072 136.304 309.368 136.304ZM350.354 140.744V154.088C350.354 155.864 350.058 157.44 349.466 158.816C348.874 160.192 348.058 161.296 347.018 162.128C345.994 162.944 344.834 163.56 343.538 163.976C342.242 164.392 340.85 164.6 339.362 164.6C338.178 164.6 337.05 164.472 335.978 164.216C334.906 163.96 333.898 163.56 332.954 163.016C332.026 162.456 331.218 161.776 330.53 160.976C329.858 160.16 329.322 159.168 328.922 158C328.538 156.816 328.346 155.512 328.346 154.088V140.744H334.61V153.536C334.61 155.312 335.042 156.632 335.906 157.496C336.77 158.344 337.922 158.768 339.362 158.768C340.802 158.768 341.954 158.344 342.818 157.496C343.682 156.632 344.114 155.312 344.114 153.536V140.744H350.354ZM380.325 140.744L362.541 173.696H355.677L363.813 159.056L353.781 140.744H360.885L367.269 152.696L373.461 140.744H380.325ZM418.938 144.224V150.392H402.09V164H395.394V130.4H420.066V136.568H402.09V144.224H418.938ZM436.025 140.12C439.641 140.12 442.641 141.288 445.025 143.624C447.425 145.944 448.625 148.856 448.625 152.36C448.625 155.864 447.425 158.784 445.025 161.12C442.641 163.44 439.641 164.6 436.025 164.6C432.425 164.6 429.433 163.44 427.049 161.12C424.665 158.784 423.473 155.864 423.473 152.36C423.473 148.856 424.665 145.944 427.049 143.624C429.433 141.288 432.425 140.12 436.025 140.12ZM440.441 147.752C439.273 146.552 437.801 145.952 436.025 145.952C434.249 145.952 432.777 146.552 431.609 147.752C430.441 148.952 429.857 150.488 429.857 152.36C429.857 154.232 430.441 155.768 431.609 156.968C432.777 158.168 434.249 158.768 436.025 158.768C437.801 158.768 439.273 158.168 440.441 156.968C441.625 155.768 442.217 154.232 442.217 152.36C442.217 150.488 441.625 148.952 440.441 147.752ZM460.005 129.44V164H453.741V129.44H460.005ZM472.849 129.44V164H466.585V129.44H472.849ZM490.541 140.12C494.157 140.12 497.157 141.288 499.541 143.624C501.941 145.944 503.141 148.856 503.141 152.36C503.141 155.864 501.941 158.784 499.541 161.12C497.157 163.44 494.157 164.6 490.541 164.6C486.941 164.6 483.949 163.44 481.565 161.12C479.181 158.784 477.989 155.864 477.989 152.36C477.989 148.856 479.181 145.944 481.565 143.624C483.949 141.288 486.941 140.12 490.541 140.12ZM494.957 147.752C493.789 146.552 492.317 145.952 490.541 145.952C488.765 145.952 487.293 146.552 486.125 147.752C484.957 148.952 484.373 150.488 484.373 152.36C484.373 154.232 484.957 155.768 486.125 156.968C487.293 158.168 488.765 158.768 490.541 158.768C492.317 158.768 493.789 158.168 494.957 156.968C496.141 155.768 496.733 154.232 496.733 152.36C496.733 150.488 496.141 148.952 494.957 147.752ZM528.549 140.744L533.829 157.064L538.821 140.744H545.373L537.501 164H530.349L525.189 148.28L520.077 164H512.973L505.101 140.744H511.773L516.741 156.992L521.949 140.744H528.549ZM559.124 140.12C562.468 140.12 565.18 141.248 567.26 143.504C569.356 145.76 570.412 148.704 570.428 152.336C570.428 153.152 570.388 153.856 570.308 154.448H553.82C554.14 156.064 554.828 157.272 555.884 158.072C556.94 158.872 558.244 159.272 559.796 159.272C560.804 159.272 561.828 159.08 562.868 158.696C563.908 158.296 564.844 157.744 565.676 157.04L569.348 161.072C566.788 163.424 563.484 164.6 559.436 164.6C555.852 164.6 552.94 163.488 550.7 161.264C548.476 159.024 547.364 156.08 547.364 152.432C547.364 148.768 548.452 145.8 550.628 143.528C552.804 141.256 555.636 140.12 559.124 140.12ZM559.076 145.52C557.636 145.52 556.476 145.928 555.596 146.744C554.716 147.56 554.132 148.704 553.844 150.176H564.14C563.852 148.688 563.268 147.544 562.388 146.744C561.524 145.928 560.42 145.52 559.076 145.52ZM588.146 140.12C589.394 140.12 590.482 140.288 591.41 140.624L590.474 146.84C589.354 146.344 588.09 146.096 586.682 146.096C585.194 146.096 584.002 146.552 583.106 147.464C582.226 148.36 581.786 149.648 581.786 151.328V164H575.522V140.744H581.594V143.288C583.002 141.176 585.186 140.12 588.146 140.12ZM614.002 142.352L611.89 147.224C610.85 146.712 609.658 146.272 608.314 145.904C606.97 145.536 605.69 145.344 604.474 145.328C603.306 145.328 602.418 145.52 601.81 145.904C601.202 146.272 600.898 146.784 600.898 147.44C600.898 148.048 601.21 148.488 601.834 148.76C602.458 149.016 603.41 149.24 604.69 149.432L606.754 149.744C611.986 150.544 614.602 152.864 614.602 156.704C614.602 159.12 613.658 161.04 611.77 162.464C609.882 163.888 607.266 164.6 603.922 164.6C599.602 164.6 596.154 163.688 593.578 161.864L596.05 157.112C598.338 158.632 600.978 159.392 603.97 159.392C606.834 159.392 608.266 158.664 608.266 157.208C608.266 156.648 607.962 156.2 607.354 155.864C606.746 155.528 605.762 155.264 604.402 155.072L602.506 154.808C597.146 154.072 594.466 151.72 594.466 147.752C594.466 145.368 595.33 143.504 597.058 142.16C598.802 140.816 601.21 140.144 604.282 140.144C607.754 140.144 610.994 140.88 614.002 142.352ZM619.874 156.416H626.906L623.546 170.72H618.266L619.874 156.416ZM669.178 157.736V164H644.722V130.4H651.418V157.736H669.178ZM679.521 140.744V164H673.257V140.744H679.521ZM673.521 130.28C674.289 129.496 675.233 129.104 676.353 129.104C677.473 129.104 678.417 129.496 679.185 130.28C679.969 131.048 680.361 132 680.361 133.136C680.361 134.256 679.977 135.2 679.209 135.968C678.441 136.736 677.489 137.12 676.353 137.12C675.233 137.12 674.289 136.736 673.521 135.968C672.753 135.2 672.369 134.256 672.369 133.136C672.369 132 672.753 131.048 673.521 130.28ZM692.365 129.44V149.024H694.573L701.125 140.744H708.805L699.637 151.688L708.877 164H701.173L694.477 154.592H692.365V164H686.101V129.44H692.365ZM721.546 140.12C724.89 140.12 727.602 141.248 729.682 143.504C731.778 145.76 732.834 148.704 732.85 152.336C732.85 153.152 732.81 153.856 732.729 154.448H716.242C716.562 156.064 717.25 157.272 718.306 158.072C719.362 158.872 720.666 159.272 722.218 159.272C723.226 159.272 724.25 159.08 725.29 158.696C726.33 158.296 727.266 157.744 728.098 157.04L731.77 161.072C729.21 163.424 725.906 164.6 721.858 164.6C718.274 164.6 715.362 163.488 713.122 161.264C710.898 159.024 709.786 156.08 709.786 152.432C709.786 148.768 710.874 145.8 713.05 143.528C715.226 141.256 718.058 140.12 721.546 140.12ZM721.497 145.52C720.058 145.52 718.898 145.928 718.018 146.744C717.138 147.56 716.554 148.704 716.266 150.176H726.562C726.274 148.688 725.69 147.544 724.81 146.744C723.946 145.928 722.842 145.52 721.497 145.52ZM756.549 142.352L754.437 147.224C753.397 146.712 752.205 146.272 750.861 145.904C749.517 145.536 748.237 145.344 747.021 145.328C745.853 145.328 744.965 145.52 744.357 145.904C743.749 146.272 743.445 146.784 743.445 147.44C743.445 148.048 743.757 148.488 744.381 148.76C745.005 149.016 745.957 149.24 747.237 149.432L749.301 149.744C754.533 150.544 757.149 152.864 757.149 156.704C757.149 159.12 756.205 161.04 754.317 162.464C752.429 163.888 749.813 164.6 746.469 164.6C742.149 164.6 738.701 163.688 736.125 161.864L738.597 157.112C740.885 158.632 743.525 159.392 746.517 159.392C749.381 159.392 750.813 158.664 750.813 157.208C750.813 156.648 750.509 156.2 749.901 155.864C749.293 155.528 748.309 155.264 746.949 155.072L745.053 154.808C739.693 154.072 737.013 151.72 737.013 147.752C737.013 145.368 737.877 143.504 739.605 142.16C741.349 140.816 743.757 140.144 746.829 140.144C750.301 140.144 753.541 140.88 756.549 142.352ZM796.84 140.744V164H790.72V161.432C789.008 163.544 786.688 164.6 783.76 164.6C780.56 164.6 777.88 163.432 775.72 161.096C773.576 158.76 772.504 155.848 772.504 152.36C772.504 148.872 773.576 145.96 775.72 143.624C777.88 141.288 780.56 140.12 783.76 140.12C786.672 140.12 788.992 141.184 790.72 143.312V140.744H796.84ZM784.912 145.952C783.12 145.952 781.672 146.568 780.568 147.8C779.464 149.016 778.912 150.536 778.912 152.36C778.912 154.184 779.464 155.712 780.568 156.944C781.672 158.16 783.12 158.768 784.912 158.768C786.688 158.768 788.128 158.168 789.232 156.968C790.352 155.752 790.912 154.216 790.912 152.36C790.912 150.504 790.352 148.976 789.232 147.776C788.128 146.56 786.688 145.952 784.912 145.952ZM816.365 140.12C819.021 140.12 821.189 140.96 822.869 142.64C824.565 144.32 825.413 146.504 825.413 149.192V164H819.149V151.208C819.149 149.544 818.749 148.264 817.949 147.368C817.165 146.456 816.053 146 814.613 146C813.189 146 812.013 146.456 811.085 147.368C810.157 148.28 809.693 149.576 809.693 151.256V164H803.429V140.744H809.525V143.48C811.029 141.24 813.309 140.12 816.365 140.12ZM841.604 140.12C844.484 140.12 846.764 141.136 848.444 143.168V129.44H854.684V164H848.564V161.432C846.852 163.544 844.532 164.6 841.604 164.6C838.404 164.6 835.724 163.432 833.564 161.096C831.42 158.76 830.348 155.848 830.348 152.36C830.348 148.872 831.42 145.96 833.564 143.624C835.724 141.288 838.404 140.12 841.604 140.12ZM842.756 145.952C840.964 145.952 839.516 146.568 838.412 147.8C837.308 149.016 836.756 150.536 836.756 152.36C836.756 154.184 837.308 155.712 838.412 156.944C839.516 158.16 840.964 158.768 842.756 158.768C844.532 158.768 845.972 158.168 847.076 156.968C848.196 155.752 848.756 154.216 848.756 152.36C848.756 150.504 848.196 148.976 847.076 147.776C845.972 146.56 844.532 145.952 842.756 145.952ZM307.832 184.4H322.04C326.008 184.4 329.048 185.296 331.16 187.088C333.288 188.864 334.352 191.376 334.352 194.624C334.352 197.392 333.44 199.664 331.616 201.44C329.792 203.2 327.272 204.232 324.056 204.536L334.4 218H326.288L316.496 204.632H314.528V218H307.832V184.4ZM321.92 190.568H314.528V198.8H321.92C325.616 198.8 327.464 197.408 327.464 194.624C327.464 191.92 325.616 190.568 321.92 190.568ZM349.217 194.12C352.561 194.12 355.273 195.248 357.353 197.504C359.449 199.76 360.505 202.704 360.521 206.336C360.521 207.152 360.481 207.856 360.401 208.448H343.913C344.233 210.064 344.921 211.272 345.977 212.072C347.033 212.872 348.337 213.272 349.889 213.272C350.897 213.272 351.921 213.08 352.961 212.696C354.001 212.296 354.937 211.744 355.769 211.04L359.441 215.072C356.881 217.424 353.577 218.6 349.529 218.6C345.945 218.6 343.033 217.488 340.793 215.264C338.569 213.024 337.457 210.08 337.457 206.432C337.457 202.768 338.545 199.8 340.721 197.528C342.897 195.256 345.729 194.12 349.217 194.12ZM349.169 199.52C347.729 199.52 346.569 199.928 345.689 200.744C344.809 201.56 344.225 202.704 343.937 204.176H354.233C353.945 202.688 353.361 201.544 352.481 200.744C351.617 199.928 350.513 199.52 349.169 199.52ZM388.512 194.744V218H382.392V215.432C380.68 217.544 378.36 218.6 375.432 218.6C372.232 218.6 369.552 217.432 367.392 215.096C365.248 212.76 364.176 209.848 364.176 206.36C364.176 202.872 365.248 199.96 367.392 197.624C369.552 195.288 372.232 194.12 375.432 194.12C378.344 194.12 380.664 195.184 382.392 197.312V194.744H388.512ZM376.584 199.952C374.792 199.952 373.344 200.568 372.24 201.8C371.136 203.016 370.584 204.536 370.584 206.36C370.584 208.184 371.136 209.712 372.24 210.944C373.344 212.16 374.792 212.768 376.584 212.768C378.36 212.768 379.8 212.168 380.904 210.968C382.024 209.752 382.584 208.216 382.584 206.36C382.584 204.504 382.024 202.976 380.904 201.776C379.8 200.56 378.36 199.952 376.584 199.952ZM406.045 194.12C407.981 194.12 409.749 194.504 411.349 195.272C412.949 196.024 414.285 197.104 415.357 198.512L410.845 202.28C409.389 200.728 407.733 199.952 405.877 199.952C404.229 199.952 402.845 200.544 401.725 201.728C400.605 202.912 400.045 204.456 400.045 206.36C400.045 208.264 400.597 209.808 401.701 210.992C402.821 212.176 404.205 212.768 405.853 212.768C407.789 212.768 409.477 211.984 410.917 210.416L415.381 214.232C413.109 217.144 409.997 218.6 406.045 218.6C402.365 218.6 399.381 217.456 397.093 215.168C394.805 212.864 393.661 209.928 393.661 206.36C393.661 202.808 394.805 199.88 397.093 197.576C399.381 195.272 402.365 194.12 406.045 194.12ZM437.004 194.744V200.312H428.58V208.808C428.58 210.184 428.892 211.192 429.516 211.832C430.156 212.456 431.004 212.768 432.06 212.768C433.308 212.768 434.764 212.264 436.428 211.256L438.732 216.152C436.348 217.784 433.78 218.6 431.028 218.6C428.164 218.6 425.996 217.808 424.524 216.224C423.052 214.64 422.316 212.336 422.316 209.312V200.312H417.828V194.744H422.316V187.832H428.58V194.744H437.004ZM448.802 194.744V218H442.538V194.744H448.802ZM442.802 184.28C443.57 183.496 444.514 183.104 445.634 183.104C446.754 183.104 447.698 183.496 448.466 184.28C449.25 185.048 449.642 186 449.642 187.136C449.642 188.256 449.258 189.2 448.49 189.968C447.722 190.736 446.77 191.12 445.634 191.12C444.514 191.12 443.57 190.736 442.802 189.968C442.034 189.2 441.65 188.256 441.65 187.136C441.65 186 442.034 185.048 442.802 184.28ZM466.494 194.12C470.11 194.12 473.11 195.288 475.494 197.624C477.894 199.944 479.094 202.856 479.094 206.36C479.094 209.864 477.894 212.784 475.494 215.12C473.11 217.44 470.11 218.6 466.494 218.6C462.894 218.6 459.902 217.44 457.518 215.12C455.134 212.784 453.942 209.864 453.942 206.36C453.942 202.856 455.134 199.944 457.518 197.624C459.902 195.288 462.894 194.12 466.494 194.12ZM470.91 201.752C469.742 200.552 468.27 199.952 466.494 199.952C464.718 199.952 463.246 200.552 462.078 201.752C460.91 202.952 460.326 204.488 460.326 206.36C460.326 208.232 460.91 209.768 462.078 210.968C463.246 212.168 464.718 212.768 466.494 212.768C468.27 212.768 469.742 212.168 470.91 210.968C472.094 209.768 472.686 208.232 472.686 206.36C472.686 204.488 472.094 202.952 470.91 201.752ZM497.146 194.12C499.802 194.12 501.97 194.96 503.65 196.64C505.346 198.32 506.194 200.504 506.194 203.192V218H499.93V205.208C499.93 203.544 499.53 202.264 498.73 201.368C497.946 200.456 496.834 200 495.394 200C493.97 200 492.794 200.456 491.866 201.368C490.938 202.28 490.474 203.576 490.474 205.256V218H484.21V194.744H490.306V197.48C491.81 195.24 494.09 194.12 497.146 194.12ZM531.361 196.352L529.249 201.224C528.209 200.712 527.017 200.272 525.673 199.904C524.329 199.536 523.049 199.344 521.833 199.328C520.665 199.328 519.777 199.52 519.169 199.904C518.561 200.272 518.257 200.784 518.257 201.44C518.257 202.048 518.569 202.488 519.193 202.76C519.817 203.016 520.769 203.24 522.049 203.432L524.113 203.744C529.345 204.544 531.961 206.864 531.961 210.704C531.961 213.12 531.017 215.04 529.129 216.464C527.241 217.888 524.625 218.6 521.281 218.6C516.961 218.6 513.513 217.688 510.937 215.864L513.409 211.112C515.697 212.632 518.337 213.392 521.329 213.392C524.193 213.392 525.625 212.664 525.625 211.208C525.625 210.648 525.321 210.2 524.713 209.864C524.105 209.528 523.121 209.264 521.761 209.072L519.865 208.808C514.505 208.072 511.825 205.72 511.825 201.752C511.825 199.368 512.689 197.504 514.417 196.16C516.161 194.816 518.569 194.144 521.641 194.144C525.113 194.144 528.353 194.88 531.361 196.352ZM559.869 194.12C563.485 194.12 566.485 195.288 568.869 197.624C571.269 199.944 572.469 202.856 572.469 206.36C572.469 209.864 571.269 212.784 568.869 215.12C566.485 217.44 563.485 218.6 559.869 218.6C556.269 218.6 553.277 217.44 550.893 215.12C548.509 212.784 547.317 209.864 547.317 206.36C547.317 202.856 548.509 199.944 550.893 197.624C553.277 195.288 556.269 194.12 559.869 194.12ZM564.285 201.752C563.117 200.552 561.645 199.952 559.869 199.952C558.093 199.952 556.621 200.552 555.453 201.752C554.285 202.952 553.701 204.488 553.701 206.36C553.701 208.232 554.285 209.768 555.453 210.968C556.621 212.168 558.093 212.768 559.869 212.768C561.645 212.768 563.117 212.168 564.285 210.968C565.469 209.768 566.061 208.232 566.061 206.36C566.061 204.488 565.469 202.952 564.285 201.752ZM590.521 194.12C593.177 194.12 595.345 194.96 597.025 196.64C598.721 198.32 599.569 200.504 599.569 203.192V218H593.305V205.208C593.305 203.544 592.905 202.264 592.105 201.368C591.321 200.456 590.209 200 588.769 200C587.345 200 586.169 200.456 585.241 201.368C584.313 202.28 583.849 203.576 583.849 205.256V218H577.585V194.744H583.681V197.48C585.185 195.24 587.465 194.12 590.521 194.12ZM642.155 184.4V190.664H631.739V218H625.043V190.664H614.627V184.4H642.155ZM664.627 194.744L669.907 211.064L674.899 194.744H681.451L673.579 218H666.427L661.267 202.28L656.155 218H649.051L641.179 194.744H647.851L652.819 210.992L658.027 194.744H664.627ZM691.661 194.744V218H685.397V194.744H691.661ZM685.661 184.28C686.429 183.496 687.373 183.104 688.493 183.104C689.613 183.104 690.557 183.496 691.325 184.28C692.109 185.048 692.501 186 692.501 187.136C692.501 188.256 692.117 189.2 691.349 189.968C690.581 190.736 689.629 191.12 688.493 191.12C687.373 191.12 686.429 190.736 685.661 189.968C684.893 189.2 684.509 188.256 684.509 187.136C684.509 186 684.893 185.048 685.661 184.28ZM715.113 194.744V200.312H706.689V208.808C706.689 210.184 707.001 211.192 707.625 211.832C708.265 212.456 709.113 212.768 710.169 212.768C711.417 212.768 712.873 212.264 714.537 211.256L716.841 216.152C714.457 217.784 711.889 218.6 709.137 218.6C706.273 218.6 704.105 217.808 702.633 216.224C701.161 214.64 700.425 212.336 700.425 209.312V200.312H695.937V194.744H700.425V187.832H706.689V194.744H715.113ZM736.957 194.744V200.312H728.533V208.808C728.533 210.184 728.845 211.192 729.469 211.832C730.109 212.456 730.957 212.768 732.013 212.768C733.261 212.768 734.717 212.264 736.381 211.256L738.685 216.152C736.301 217.784 733.733 218.6 730.981 218.6C728.117 218.6 725.949 217.808 724.477 216.224C723.005 214.64 722.269 212.336 722.269 209.312V200.312H717.781V194.744H722.269V187.832H728.533V194.744H736.957ZM752.53 194.12C755.874 194.12 758.586 195.248 760.666 197.504C762.762 199.76 763.818 202.704 763.834 206.336C763.834 207.152 763.794 207.856 763.714 208.448H747.226C747.546 210.064 748.234 211.272 749.29 212.072C750.346 212.872 751.65 213.272 753.202 213.272C754.21 213.272 755.234 213.08 756.274 212.696C757.314 212.296 758.25 211.744 759.082 211.04L762.754 215.072C760.194 217.424 756.89 218.6 752.842 218.6C749.258 218.6 746.346 217.488 744.106 215.264C741.882 213.024 740.77 210.08 740.77 206.432C740.77 202.768 741.858 199.8 744.034 197.528C746.21 195.256 749.042 194.12 752.53 194.12ZM752.482 199.52C751.042 199.52 749.882 199.928 749.002 200.744C748.122 201.56 747.538 202.704 747.25 204.176H757.546C757.258 202.688 756.674 201.544 755.794 200.744C754.93 199.928 753.826 199.52 752.482 199.52ZM781.553 194.12C782.801 194.12 783.889 194.288 784.817 194.624L783.881 200.84C782.761 200.344 781.497 200.096 780.089 200.096C778.601 200.096 777.409 200.552 776.513 201.464C775.633 202.36 775.193 203.648 775.193 205.328V218H768.929V194.744H775.001V197.288C776.409 195.176 778.593 194.12 781.553 194.12ZM811.728 194.12C815.344 194.12 818.344 195.288 820.728 197.624C823.128 199.944 824.328 202.856 824.328 206.36C824.328 209.864 823.128 212.784 820.728 215.12C818.344 217.44 815.344 218.6 811.728 218.6C808.128 218.6 805.136 217.44 802.752 215.12C800.368 212.784 799.176 209.864 799.176 206.36C799.176 202.856 800.368 199.944 802.752 197.624C805.136 195.288 808.128 194.12 811.728 194.12ZM816.144 201.752C814.976 200.552 813.504 199.952 811.728 199.952C809.952 199.952 808.48 200.552 807.312 201.752C806.144 202.952 805.56 204.488 805.56 206.36C805.56 208.232 806.144 209.768 807.312 210.968C808.48 212.168 809.952 212.768 811.728 212.768C813.504 212.768 814.976 212.168 816.144 210.968C817.328 209.768 817.92 208.232 817.92 206.36C817.92 204.488 817.328 202.952 816.144 201.752ZM842.068 194.12C843.316 194.12 844.404 194.288 845.332 194.624L844.396 200.84C843.276 200.344 842.012 200.096 840.604 200.096C839.116 200.096 837.924 200.552 837.028 201.464C836.148 202.36 835.708 203.648 835.708 205.328V218H829.444V194.744H835.516V197.288C836.924 195.176 839.108 194.12 842.068 194.12ZM496.538 238.4V244.664H486.122V272H479.426V244.664H469.01V238.4H496.538ZM506.975 248.12C510.319 248.12 513.031 249.248 515.111 251.504C517.207 253.76 518.263 256.704 518.279 260.336C518.279 261.152 518.239 261.856 518.159 262.448H501.671C501.991 264.064 502.679 265.272 503.735 266.072C504.791 266.872 506.095 267.272 507.647 267.272C508.655 267.272 509.679 267.08 510.719 266.696C511.759 266.296 512.695 265.744 513.527 265.04L517.199 269.072C514.639 271.424 511.335 272.6 507.287 272.6C503.703 272.6 500.791 271.488 498.551 269.264C496.327 267.024 495.215 264.08 495.215 260.432C495.215 256.768 496.303 253.8 498.479 251.528C500.655 249.256 503.487 248.12 506.975 248.12ZM506.927 253.52C505.487 253.52 504.327 253.928 503.447 254.744C502.567 255.56 501.983 256.704 501.695 258.176H511.991C511.703 256.688 511.119 255.544 510.239 254.744C509.375 253.928 508.271 253.52 506.927 253.52ZM529.638 237.44V272H523.374V237.44H529.638ZM546.538 248.12C549.882 248.12 552.594 249.248 554.674 251.504C556.77 253.76 557.826 256.704 557.842 260.336C557.842 261.152 557.802 261.856 557.722 262.448H541.234C541.554 264.064 542.242 265.272 543.298 266.072C544.354 266.872 545.658 267.272 547.21 267.272C548.218 267.272 549.242 267.08 550.282 266.696C551.322 266.296 552.258 265.744 553.09 265.04L556.762 269.072C554.202 271.424 550.898 272.6 546.85 272.6C543.266 272.6 540.354 271.488 538.114 269.264C535.89 267.024 534.778 264.08 534.778 260.432C534.778 256.768 535.866 253.8 538.042 251.528C540.218 249.256 543.05 248.12 546.538 248.12ZM546.49 253.52C545.05 253.52 543.89 253.928 543.01 254.744C542.13 255.56 541.546 256.704 541.258 258.176H551.554C551.266 256.688 550.682 255.544 549.802 254.744C548.938 253.928 547.834 253.52 546.49 253.52ZM572.2 248.12C575.272 248.12 577.672 249.192 579.4 251.336V248.744H585.544V270.08C585.544 273.792 584.416 276.712 582.16 278.84C579.904 280.984 576.848 282.056 572.992 282.056C571.104 282.056 569.256 281.808 567.448 281.312C565.64 280.832 564.096 280.144 562.816 279.248L565.048 274.136C567.448 275.72 570.008 276.512 572.728 276.512C574.728 276.512 576.328 275.968 577.528 274.88C578.744 273.808 579.352 272.296 579.352 270.344V268.712C577.64 270.808 575.256 271.856 572.2 271.856C570.792 271.856 569.44 271.568 568.144 270.992C566.848 270.416 565.704 269.624 564.712 268.616C563.736 267.608 562.952 266.352 562.36 264.848C561.784 263.344 561.496 261.728 561.496 260C561.496 258.256 561.784 256.64 562.36 255.152C562.952 253.648 563.736 252.392 564.712 251.384C565.704 250.36 566.848 249.56 568.144 248.984C569.44 248.408 570.792 248.12 572.2 248.12ZM573.784 253.88C572.04 253.88 570.624 254.472 569.536 255.656C568.464 256.824 567.928 258.272 567.928 260C567.928 261.728 568.464 263.176 569.536 264.344C570.624 265.512 572.04 266.096 573.784 266.096C575.496 266.096 576.896 265.52 577.984 264.368C579.072 263.2 579.616 261.744 579.616 260C579.616 258.24 579.072 256.784 577.984 255.632C576.912 254.464 575.512 253.88 573.784 253.88ZM604.764 248.12C606.012 248.12 607.1 248.288 608.028 248.624L607.092 254.84C605.972 254.344 604.708 254.096 603.3 254.096C601.812 254.096 600.62 254.552 599.724 255.464C598.844 256.36 598.404 257.648 598.404 259.328V272H592.14V248.744H598.212V251.288C599.62 249.176 601.804 248.12 604.764 248.12ZM634.395 248.744V272H628.275V269.432C626.563 271.544 624.243 272.6 621.315 272.6C618.115 272.6 615.435 271.432 613.275 269.096C611.131 266.76 610.059 263.848 610.059 260.36C610.059 256.872 611.131 253.96 613.275 251.624C615.435 249.288 618.115 248.12 621.315 248.12C624.227 248.12 626.547 249.184 628.275 251.312V248.744H634.395ZM622.467 253.952C620.675 253.952 619.227 254.568 618.123 255.8C617.019 257.016 616.467 258.536 616.467 260.36C616.467 262.184 617.019 263.712 618.123 264.944C619.227 266.16 620.675 266.768 622.467 266.768C624.243 266.768 625.683 266.168 626.787 264.968C627.907 263.752 628.467 262.216 628.467 260.36C628.467 258.504 627.907 256.976 626.787 255.776C625.683 254.56 624.243 253.952 622.467 253.952ZM669.495 248.12C672.231 248.12 674.439 248.96 676.119 250.64C677.815 252.304 678.663 254.488 678.663 257.192V272H672.423V259.208C672.423 257.544 672.023 256.264 671.223 255.368C670.423 254.456 669.311 254 667.887 254C666.463 254 665.287 254.456 664.359 255.368C663.431 256.28 662.967 257.576 662.967 259.256V272H656.703V259.208C656.703 257.544 656.303 256.264 655.503 255.368C654.719 254.456 653.607 254 652.167 254C650.743 254 649.567 254.456 648.639 255.368C647.711 256.28 647.247 257.576 647.247 259.256V272H640.983V248.744H647.079V251.48C648.583 249.24 650.863 248.12 653.919 248.12C655.583 248.12 657.079 248.472 658.407 249.176C659.751 249.88 660.815 250.856 661.599 252.104C663.215 249.448 665.847 248.12 669.495 248.12Z" fill="white"/>
    </g>
    <defs>
        <clipPath id="clip0_1_4">
            <rect width="1150" height="400" rx="20" fill="white"/>
        </clipPath>
    </defs>
</svg>
